<svg width="187" height="34" viewBox="0 0 187 34" fill="none" xmlns="http://www.w3.org/2000/svg">
<path d="M15.3532 34C5.48686 34 0 28.4089 0 16.9748C0 5.59111 5.43654 0 15.3532 0H24.6651V5.94371H15.3532C8.75885 5.94371 5.93991 9.21778 5.93991 16.9748C5.93991 24.7822 8.80919 28.0564 15.3532 28.0564H34.8623V34H15.3532Z" fill="white"/>
<path d="M51.8684 0L63.0572 29.6943C64.2948 32.9607 66.8197 34 70.0873 34C73.553 34 75.8303 32.8121 77.0679 29.6943L88.8508 0H82.3653L71.721 26.8734C71.3744 27.6652 70.8795 28.0115 70.0873 28.0115C69.2951 28.0115 68.7507 27.6652 68.4536 26.8734L58.3044 0H51.8684Z" fill="white"/>
<path d="M122.888 7.12663C123.234 6.33479 123.779 5.98836 124.571 5.98836C125.363 5.98836 125.908 6.33479 126.205 7.12663L136.354 34H142.84L131.552 4.30568C130.364 1.18777 128.086 0 124.621 0C121.106 0 118.828 1.18777 117.591 4.30568L105.857 34H112.293L122.888 7.12663Z" fill="white"/>
<path d="M159.846 0V5.8174H169.561V34H175.43V5.8174H185.146V0H159.846Z" fill="white"/>
</svg>
