<svg width="53" height="53" viewBox="0 0 53 53" fill="none" xmlns="http://www.w3.org/2000/svg">
<path d="M20.1514 34.3776C20.2772 34.9057 20.4084 35.422 20.5503 35.9137C22.2925 41.8518 25.1106 44.941 29.1466 45.3505L29.0974 29.2094L20.1514 34.3776Z" fill="#B1FE33"/>
<path d="M29.0575 16.042C25.7146 18.0807 22.284 20.6784 18.7966 23.8209C18.9639 27.3922 19.3373 30.571 19.9097 33.3121L29.0939 28.0062L29.0575 16.042Z" fill="#B1FE33"/>
<path d="M44.2675 6.23611C44.2257 6.19955 44.1745 6.18038 44.1228 6.16184C44.0977 6.15235 44.0724 6.14318 44.043 6.13796C43.9836 6.12764 43.9205 6.12324 43.8491 6.13108C43.8439 6.13159 43.8393 6.1305 43.8339 6.13114C34.1519 7.39709 25.152 13.5946 17.9461 20.068C17.2786 20.6684 16.6099 21.2824 15.9392 21.9192C15.3616 22.4655 14.9304 23.2816 14.779 24.0301C14.6016 24.9316 14.5367 44.0346 22.8608 49.0878C24.734 50.2189 26.945 50.6803 29.4669 50.4366C38.8088 40.8833 44.5748 24.2764 44.5259 7.03557C44.5274 6.67176 44.4336 6.38183 44.2675 6.23611ZM40.2782 22.5439C40.2751 22.559 40.2738 22.5736 40.2694 22.5883C40.1147 23.4211 39.9638 24.2551 39.78 25.0794C37.8356 33.7202 34.489 41.0422 30.1008 46.2553C29.9979 46.3781 29.8501 46.4413 29.7013 46.4413C29.6983 46.4413 29.6947 46.4413 29.6916 46.4413C29.6856 46.4413 29.6799 46.4412 29.6739 46.4409L29.6718 46.4413H29.6702L29.6656 46.4404C24.8899 46.2525 21.4858 42.8094 19.5482 36.2052C18.5684 32.8081 17.961 28.5753 17.7429 23.6216C17.7363 23.4662 17.799 23.3164 17.9142 23.2119C21.8223 19.6711 25.6683 16.7917 29.3452 14.6532C33.3012 12.3643 37.1595 10.876 40.8765 10.1871C41.2136 10.1287 41.4999 10.3889 41.4936 10.7104C41.4175 14.6917 40.9976 18.6577 40.2782 22.5439Z" fill="#B1FE33"/>
<path d="M15.2237 21.1575C15.7224 20.6847 16.2196 20.2282 16.7166 19.7751C23.9064 13.2141 32.6915 7.06171 42.2286 5.33228C42.3517 5.30999 42.476 5.28056 42.5987 5.25986L37.9629 2.55778C37.8641 2.50631 37.7438 2.48797 37.6057 2.50784C27.1147 3.8764 17.3388 11.0533 9.69929 18.2949C8.96046 18.9976 8.45602 20.1078 8.47436 20.9944C8.68092 28.9259 9.86935 41.5572 16.7717 45.568L18.9378 46.8248C14.2164 40.4274 12.0464 24.1417 15.2237 21.1575Z" fill="#B1FE33"/>
<path d="M30.1356 27.4043L39.3041 22.1075C39.9462 18.5679 40.3332 14.9609 40.4347 11.3381C37.082 12.0408 33.6091 13.4147 30.0991 15.4211L30.1356 27.4043Z" fill="#B1FE33"/>
<path d="M30.1874 44.4457C34.0291 39.45 36.9894 32.7267 38.7618 24.8512C38.8638 24.3935 38.9421 23.9288 39.035 23.4683L30.1392 28.6075L30.1874 44.4457Z" fill="#B1FE33"/>
</svg>
