<svg width="53" height="53" viewBox="0 0 53 53" fill="none" xmlns="http://www.w3.org/2000/svg">
<path d="M18.3302 35.745C14.935 37.7059 12.1392 42.5154 12.1502 46.4385C12.161 50.1314 14.6134 51.5434 17.8375 49.6814C21.2558 47.7082 24.0274 42.9051 24.0159 38.9748C24.0052 35.277 21.5296 33.8985 18.3302 35.745ZM17.794 37.9577C18.7965 37.3817 19.7564 37.9364 19.7671 39.0882C19.7671 40.0054 19.1378 41.0933 18.3379 41.5519C17.3354 42.1385 16.3754 41.5626 16.3754 40.4321C16.3648 39.5042 16.9941 38.427 17.794 37.9577ZM20.8869 44.5382C20.8869 44.7302 20.7802 44.9115 20.6203 45.0075L16.0768 47.6312C15.9168 47.7272 15.7142 47.7272 15.5436 47.6312C15.3836 47.5352 15.2769 47.3539 15.2769 47.1619V46.8953C15.2769 45.2635 16.3861 43.3437 17.8046 42.5225C19.4258 41.5839 20.8763 42.4158 20.8869 44.2716V44.5382Z" fill="#B1FE33"/>
<path d="M20.296 17.7112L21.7588 18.5585C21.7532 18.5424 21.7515 18.5227 21.746 18.5064C21.0245 16.3836 21.4997 13.8235 22.334 11.7227C23.2473 9.4187 24.7586 7.22977 26.553 5.70483C27.9401 4.52476 29.2732 3.93688 30.3159 3.73287C30.3355 3.72903 30.3564 3.7192 30.376 3.71555L28.9184 2.86774C27.6696 2.14335 26.1059 2.59368 24.8548 3.31612C21.4328 5.29661 18.6629 10.0976 18.6795 14.0174C18.6795 15.7865 19.2534 17.0973 20.296 17.7112Z" fill="#B1FE33"/>
<path d="M36.7599 25.5726C35.0461 27.313 33.6983 29.6885 33.1029 32.0325C31.8137 37.1228 34.3469 40.1517 38.4616 37.7739C41.8768 35.8023 44.6458 31.0013 44.6343 27.0711C44.6195 22.0358 40.3433 21.938 36.7599 25.5726ZM38.4102 26.0551C39.4234 25.4792 40.3833 26.0338 40.3833 27.175C40.3833 28.1029 39.754 29.18 38.9541 29.6493C37.9516 30.2253 36.9917 29.6707 36.9917 28.5295C36.9917 27.6016 37.6103 26.5137 38.4102 26.0551ZM41.5031 32.6357C41.5031 32.8276 41.4072 33.0089 41.2365 33.105L36.7037 35.7179C36.6184 35.7713 36.5224 35.7926 36.4371 35.7926C36.1385 35.7926 35.9038 35.558 35.9038 35.2593V34.9927C35.8932 33.3609 37.0024 31.4305 38.4315 30.6092C40.042 29.6814 41.5031 30.5132 41.5031 32.369V32.6357Z" fill="#B1FE33"/>
<path d="M36.085 24.7539C37.3115 23.5274 38.8687 22.4076 40.6178 22.0556C40.6391 22.0556 40.6605 22.045 40.6925 22.0343L39.2313 21.1917C38.8047 20.9464 38.3247 20.8184 37.7915 20.8184C37.5781 20.8184 37.3649 20.8398 37.1409 20.8824L37.1302 17.7254C37.1302 17.5335 37.0236 17.3629 36.8636 17.2668C36.693 17.1709 36.4903 17.1709 36.3303 17.2668L27.0408 22.6315L27.0314 19.9708C27.3881 19.839 27.756 19.6787 28.1471 19.4527C31.5649 17.4795 34.3365 12.6796 34.3255 8.75296C34.3203 6.98274 33.7464 5.67717 32.7099 5.07092C32.7076 5.06962 32.705 5.06982 32.7028 5.06852L32.6799 5.0555C32.6737 5.05192 32.6668 5.04996 32.6605 5.04645C30.9652 4.10262 28.7298 5.25378 27.2286 6.52342C25.6436 7.86525 24.2949 9.77022 23.4403 11.7939C21.4101 16.6092 22.679 20.6506 25.9654 20.2395L25.9742 23.2501L16.1301 28.9241C15.9595 29.0201 15.8635 29.2014 15.8635 29.3934L15.8741 32.9556C11.8746 34.2248 8.35507 39.9414 8.36575 44.2396C8.36575 46.01 8.95233 47.3218 9.99751 47.9404L11.448 48.783C11.4373 48.7617 11.4373 48.7404 11.4373 48.7297C11.2027 48.0471 11.0854 47.1192 11.0747 46.4367C11.0747 42.1918 14.093 36.9658 17.7939 34.8221C18.3805 34.4808 19.2231 34.1181 20.0016 33.9582C20.023 33.9582 20.0443 33.9475 20.0656 33.9475L18.6045 33.0943C18.1245 32.817 17.5593 32.6997 16.9407 32.7423L16.93 29.7027L36.0637 18.6533L36.0744 21.2024C35.7757 21.3197 35.4771 21.4583 35.1678 21.6397C31.7442 23.6127 28.9712 28.4122 28.9819 32.337C28.9925 34.1075 29.5684 35.4193 30.603 36.0272L32.0642 36.8805C32.0642 36.8591 32.0642 36.8378 32.0535 36.8165C31.6482 35.6113 31.5309 33.9261 32.0642 31.8037C32.7254 29.2441 34.2079 26.6417 36.085 24.7539ZM28.1073 7.73199C29.1098 7.15609 30.0697 7.71071 30.0697 8.86252C30.0804 9.77979 29.4511 10.8676 28.6512 11.3262C27.6487 11.9022 26.6888 11.3476 26.6782 10.2064C26.6782 9.27849 27.3074 8.1906 28.1073 7.73199ZM25.5903 16.9362V16.6696C25.5903 15.0378 26.6995 13.1074 28.118 12.2861C29.7391 11.3582 31.1896 12.2008 31.1896 14.0459L31.2003 14.3126C31.2003 14.5045 31.0936 14.6858 30.9336 14.7818L26.3902 17.3948C26.3048 17.4481 26.2196 17.4695 26.1235 17.4695C25.8356 17.4695 25.5903 17.2349 25.5903 16.9362Z" fill="#B1FE33"/>
</svg>
