<svg width="53" height="53" viewBox="0 0 53 53" fill="none" xmlns="http://www.w3.org/2000/svg">
<path d="M30.4042 40.7811L30.4284 37.6736C30.3752 37.6917 30.3202 37.7036 30.2668 37.7209C27.4901 38.6154 24.4783 38.6247 21.6831 37.7387C21.6051 37.7138 21.525 37.696 21.4476 37.6697L21.4232 40.7615C21.4142 41.346 21.8472 41.9215 22.6416 42.3852C25.5577 44.0575 30.3725 42.8232 30.4042 40.7811Z" fill="#B1FE33"/>
<path d="M32.3529 37.7296C32.0608 37.562 31.7628 37.4114 31.4668 37.2805L31.4631 37.2819L31.4355 40.7927C31.3974 43.3931 27.592 44.4435 24.9032 44.1375C23.8931 44.0229 22.9253 43.7363 22.1253 43.2774C19.4849 41.7366 20.6979 39.9304 20.4185 37.3832C20.1648 37.5005 19.9503 37.6123 19.7589 37.7261C14.6993 40.6619 18.0628 45.1377 24.4006 45.8474C24.4815 45.8564 24.5644 45.8532 24.6457 45.861C32.7641 46.6358 38.2841 41.1691 32.3529 37.7296Z" fill="#B1FE33"/>
<path d="M34.435 44.1785C32.4126 46.1958 28.9353 46.9587 26.1015 46.9587C23.0069 46.9587 19.1373 46.0351 17.2293 43.6172L17.1558 45.764C17.1397 50.1226 27.2816 51.9991 32.2318 49.1252C33.8037 48.2109 34.6707 47.0297 34.6747 45.7988L34.7421 43.8639C34.7081 43.9025 34.6605 43.9365 34.625 43.9747C34.5616 44.0426 34.5031 44.112 34.435 44.1785Z" fill="#B1FE33"/>
<path d="M23.4699 17.0912C27.7755 17.5709 32.962 16.8344 36.411 14.2722C36.4644 14.2324 36.515 14.1916 36.5667 14.1512C31.5868 10.2963 22.1434 10.0392 16.5719 13.2759C16.1064 13.5475 15.697 13.8202 15.3333 14.1016C15.4367 14.1594 18.0708 16.4899 23.4699 17.0912Z" fill="#B1FE33"/>
<path d="M44.5922 6.8913C44.5902 6.61694 44.4432 6.36365 44.2056 6.2262C43.9679 6.08929 43.6759 6.08728 43.4363 6.22369L38.8689 8.82098C37.7325 4.45425 30.7915 2.5 25.9013 2.5C20.8398 2.5 12.8427 4.79945 12.8693 9.85828C12.8761 11.2261 13.5784 12.4479 14.5525 13.4233C14.994 13.0662 15.4769 12.7208 16.0533 12.3847C21.8993 8.98984 31.9853 9.16368 37.3455 13.4692C38.1281 12.6904 38.7164 11.8077 38.9367 10.7211C38.9506 10.6531 38.9647 10.5853 38.9752 10.5171C38.9755 10.5148 38.9754 10.5125 38.9758 10.5102C39.0166 10.4955 39.0592 10.4922 39.0983 10.47L43.0536 8.22101L43.0556 8.64087C43.0646 11.5822 41.0845 15.2192 39.0238 17.7172V13.0829C36.4705 16.8211 30.5459 18.2445 25.9974 18.2464C25.9945 18.2464 25.9917 18.2466 25.9888 18.2466C21.2995 18.2466 15.3932 16.7375 12.8693 13.0267V19.5017L8.78412 21.8606C8.5445 21.9991 8.39643 22.2553 8.39747 22.5322L8.40247 24.2728C8.41373 28.2135 10.6124 30.1271 13.1452 30.1271C13.4901 30.1271 13.8475 30.0803 14.21 30.0112C14.8381 31.2971 15.664 32.4913 16.7078 33.5306C19.251 36.0841 22.572 37.3707 25.9536 37.3707C27.4879 37.3707 29.3124 37.0515 30.9389 36.3772C31.0106 36.3478 31.083 36.319 31.1531 36.2853C35.7819 34.2687 39.0288 29.6516 39.0288 24.2858V19.7993C39.1848 19.7693 39.3357 19.7067 39.4518 19.5814C42.0235 16.8113 44.6133 12.3525 44.6023 8.63385L44.5922 6.8913ZM11.664 28.2034C10.5634 27.57 9.95423 26.1724 9.94916 24.2687L9.94513 22.9758L12.8693 21.2874V24.2858C12.8693 25.764 13.1334 27.1961 13.603 28.5516C12.8756 28.6362 12.2177 28.5217 11.664 28.2034Z" fill="#B1FE33"/>
</svg>
