<svg width="55" height="55" viewBox="0 0 55 55" fill="none" xmlns="http://www.w3.org/2000/svg">
<path d="M30.5556 0H24.4444V6.11111H30.5556V0ZM42.7778 6.11111H48.8889V12.2222H42.7778V6.11111ZM24.4444 24.4444H30.5556V30.5556H24.4444V24.4444ZM0 24.4444H6.11111V30.5556H0V24.4444ZM55 24.4444H48.8889V30.5556H55V24.4444ZM6.11111 6.11111H12.2222V12.2222H6.11111V6.11111ZM48.8889 48.8889H42.7778V42.7778H48.8889V48.8889ZM24.4444 55H30.5556V48.8889H24.4444V55ZM12.2222 48.8889H6.11111V42.7778H12.2222V48.8889ZM18.3333 12.2222H36.6667V18.3333H18.3333V12.2222ZM18.3333 36.6667H12.2222V18.3333H18.3333V36.6667ZM18.3333 36.6667V42.7778H36.6667V36.6667H42.7778V18.3333H36.6667V36.6667H18.3333Z" fill="#E3FB1E"/>
</svg>
