<svg width="80" height="80" viewBox="0 0 80 80" fill="none" xmlns="http://www.w3.org/2000/svg">
<path d="M44.4444 0H35.5556V8.88889H44.4444V0ZM62.2222 8.88889H71.1111V17.7778H62.2222V8.88889ZM35.5556 35.5556H44.4444V44.4444H35.5556V35.5556ZM0 35.5556H8.88889V44.4444H0V35.5556ZM80 35.5556H71.1111V44.4444H80V35.5556ZM8.88889 8.88889H17.7778V17.7778H8.88889V8.88889ZM71.1111 71.1111H62.2222V62.2222H71.1111V71.1111ZM35.5556 80H44.4444V71.1111H35.5556V80ZM17.7778 71.1111H8.88889V62.2222H17.7778V71.1111ZM26.6667 17.7778H53.3333V26.6667H26.6667V17.7778ZM26.6667 53.3333H17.7778V26.6667H26.6667V53.3333ZM26.6667 53.3333V62.2222H53.3333V53.3333H62.2222V26.6667H53.3333V53.3333H26.6667Z" fill="#E3FB1E"/>
</svg>
