<svg width="159" height="159" viewBox="0 0 159 159" fill="none" xmlns="http://www.w3.org/2000/svg">
<path d="M88.3333 0H70.6667V17.6667H88.3333V0ZM123.667 17.6667H141.333V35.3333H123.667V17.6667ZM70.6667 70.6667H88.3333V88.3333H70.6667V70.6667ZM0 70.6667H17.6667V88.3333H0V70.6667ZM159 70.6667H141.333V88.3333H159V70.6667ZM17.6667 17.6667H35.3333V35.3333H17.6667V17.6667ZM141.333 141.333H123.667V123.667H141.333V141.333ZM70.6667 159H88.3333V141.333H70.6667V159ZM35.3333 141.333H17.6667V123.667H35.3333V141.333ZM53 35.3333H106V53H53V35.3333ZM53 106H35.3333V53H53V106ZM53 106V123.667H106V106H123.667V53H106V106H53Z" fill="#E3FB1E"/>
</svg>
