<svg width="256" height="52" viewBox="0 0 256 52" fill="none" xmlns="http://www.w3.org/2000/svg">
<g clip-path="url(#clip0_2031_328)">
<path fill-rule="evenodd" clip-rule="evenodd" d="M51.9797 13L51.9797 39C51.9797 46.1797 46.1617 52 38.9848 52L12.995 52C5.81806 52 3.8147e-05 46.1797 3.8147e-05 39L3.8147e-05 13C3.8147e-05 5.8203 5.81806 0 12.995 0L38.9848 0C46.1617 0 51.9797 5.8203 51.9797 13Z" fill="white"/>
<path fill-rule="evenodd" clip-rule="evenodd" d="M34.9054 28.9272C31.9939 24.198 20.4037 22.0529 20.8263 16.6276C21.1554 12.3812 27.0881 12.7922 27.0881 12.7922C27.0881 12.7922 17.762 11.7975 16.4636 18.4912C15.1311 25.3551 28.9925 27.9492 30.9293 31.9994C34.026 38.4785 24.1209 39.1021 24.1209 39.1021C34.7975 39.5961 37.3691 32.9286 34.9054 28.9272Z" fill="#1A1A1A"/>
<path opacity="0.5" fill-rule="evenodd" clip-rule="evenodd" d="M18.3609 29.3123C18.3088 30.3369 18.2962 31.2678 18.4095 32.1323C18.5192 32.9951 18.7673 33.756 19.1863 34.4064C19.3986 34.7306 19.6413 35.042 19.9345 35.3284C20.233 35.6099 20.5549 35.8907 20.9217 36.1444C21.0962 36.2836 21.2976 36.3921 21.4846 36.5284C21.6806 36.6513 21.882 36.772 22.0852 36.9022C22.2921 37.0199 22.5025 37.1455 22.7147 37.2769C22.9305 37.3963 23.1481 37.5295 23.3657 37.6771C23.0384 37.7333 22.7057 37.7611 22.3748 37.7611C21.668 37.7611 20.9613 37.6348 20.2725 37.3863L19.8949 37.2396C19.7708 37.1827 19.6521 37.1165 19.528 37.0546L19.3446 36.9589C19.2853 36.9241 19.2295 36.8834 19.1702 36.8456C19.0551 36.767 18.9364 36.6939 18.8231 36.6087C18.3771 36.2666 17.9725 35.8413 17.6632 35.3506C17.3503 34.862 17.1381 34.3103 17.0302 33.7536C16.9241 33.1957 16.9187 32.6335 16.9996 32.0991C17.0823 31.5643 17.2424 31.0547 17.4672 30.5834C17.6973 30.1154 17.9797 29.6733 18.3609 29.3123ZM29.1688 13.9714C29.8738 13.9714 30.5823 14.0975 31.2711 14.3461L31.6487 14.4931C31.771 14.5496 31.8915 14.6158 32.0138 14.678L32.1972 14.7734C32.2584 14.8084 32.3141 14.8489 32.3734 14.8868C32.4885 14.9654 32.6072 15.0384 32.7187 15.1237C33.1665 15.4661 33.5693 15.8912 33.8804 16.3819C34.1933 16.8703 34.4056 17.4223 34.5134 17.9786C34.6195 18.5368 34.6231 19.0991 34.5422 19.6334C34.4595 20.1684 34.3012 20.6778 34.0765 21.1491C33.8463 21.6168 33.5639 22.0592 33.1827 22.42C33.2348 21.3958 33.2474 20.4647 33.1341 19.6003C33.0244 18.7374 32.7763 17.9765 32.3573 17.3261C32.1451 17.0019 31.9023 16.6904 31.6092 16.4039C31.3088 16.1226 30.9887 15.8419 30.6201 15.5883C30.4474 15.449 30.246 15.3404 30.059 15.2041C29.863 15.0814 29.6616 14.9605 29.4584 14.8303C29.2498 14.7125 29.0412 14.587 28.829 14.4553C28.6114 14.3362 28.3956 14.2032 28.1762 14.0552C28.5053 13.9992 28.8361 13.9714 29.1688 13.9714Z" fill="#1A1A1A"/>
<path fill-rule="evenodd" clip-rule="evenodd" d="M105.586 22.4029C109.02 22.4029 111.654 25.4769 111.654 29.1451C111.654 32.8132 109.02 35.8872 105.586 35.8872C103.909 35.8872 102.598 35.0863 101.955 34.303L101.842 34.1565V41.002H98.3044V22.687H101.842V24.1336C102.436 23.307 103.804 22.4029 105.586 22.4029ZM73.7476 16.9523C77.6984 16.9523 80.0482 19.7938 80.1773 22.532H76.4589C76.0458 20.9821 74.8322 20.4138 73.7476 20.4138C72.4307 20.4138 71.3978 21.0338 71.372 22.1187C71.3462 23.2553 72.1725 23.8753 73.6702 24.3144L75.8134 24.9086C78.7829 25.7352 80.5646 27.621 80.5646 30.4625C80.5646 33.5882 78.0341 35.9131 74.1866 35.9131C69.7969 35.9131 67.2921 32.9424 67.1372 29.92H70.8814C71.1396 31.5733 72.5598 32.4516 74.1866 32.4516C75.6843 32.4516 76.7946 31.7541 76.7946 30.5916C76.7946 29.61 76.0974 28.8609 74.3415 28.3701L72.4049 27.8018C69.5128 26.9752 67.6278 25.1669 67.602 22.377C67.5762 18.993 70.0809 16.9523 73.7476 16.9523ZM248.537 22.4029C252.244 22.4029 255.311 24.9906 255.284 29.6363L255.276 29.9717H245.206C245.361 31.4958 246.497 32.8132 248.692 32.8132C249.849 32.8132 250.87 32.3407 251.337 31.5636L251.429 31.3924H255.121C254.347 34.0015 251.79 35.8872 248.511 35.8872C244.56 35.8872 241.746 33.0457 241.746 29.1192C241.746 25.2702 244.612 22.4029 248.537 22.4029ZM195.886 22.4029C199.63 22.4029 202.677 25.3736 202.677 29.1451C202.677 32.9165 199.63 35.8872 195.886 35.8872C192.142 35.8872 189.095 32.9165 189.095 29.1451C189.095 25.3736 192.142 22.4029 195.886 22.4029ZM221.036 22.4029C222.713 22.4029 224.024 23.2038 224.646 23.9871L224.755 24.1336V22.687H228.292V35.6031H224.755V34.1565C224.187 34.9831 222.818 35.8872 221.036 35.8872C217.602 35.8872 214.968 32.8132 214.968 29.1451C214.968 25.4769 217.602 22.4029 221.036 22.4029ZM120.201 22.4029C123.909 22.4029 126.976 24.9906 126.948 29.6363L126.941 29.9717H116.87C117.025 31.4958 118.161 32.8132 120.356 32.8132C121.513 32.8132 122.535 32.3407 123.002 31.5636L123.093 31.3924H126.786C126.011 34.0015 123.455 35.8872 120.176 35.8872C116.225 35.8872 113.41 33.0457 113.41 29.1192C113.41 25.2702 116.276 22.4029 120.201 22.4029ZM86.5037 22.687V29.5842C86.5037 31.5216 87.1751 32.6582 88.6986 32.6582C90.2737 32.6582 91.3582 31.4958 91.3582 28.9901V22.687H94.8959V35.6031H91.3582V34.1306C90.6869 35.1639 89.4732 35.8872 87.8206 35.8872C84.6962 35.8872 82.9661 33.614 82.9661 30.1783V22.687H86.5037ZM209.804 19.0964V22.687H213.445V25.7869H209.804V30.385C209.804 31.9607 210.475 32.5807 211.999 32.5807C212.567 32.5807 213.032 32.5032 213.445 32.3482V35.4739C212.877 35.6547 212.179 35.7581 211.198 35.7581C208.461 35.7581 206.266 34.234 206.266 31.0825V25.7869H203.658V22.687H206.266V19.0964H209.804ZM236.581 19.0964V22.687H240.222V25.7869H236.581V30.385C236.581 31.9607 237.253 32.5807 238.776 32.5807C239.344 32.5807 239.809 32.5032 240.222 32.3482V35.4739C239.654 35.6547 238.957 35.7581 237.976 35.7581C235.238 35.7581 233.044 34.234 233.044 31.0825V25.7869H230.436V22.687H233.044V19.0964H236.581ZM181.709 22.4029C184.834 22.4029 186.693 24.6761 186.693 28.0343V35.6031H183.155V28.6284C183.155 26.7685 182.355 25.6319 180.883 25.6319C179.256 25.6319 178.017 26.8202 178.017 29.3V35.6031H174.479V22.687H178.017V24.1595C178.688 23.1262 180.031 22.4029 181.709 22.4029ZM166.242 22.4029C169.367 22.4029 171.226 24.6761 171.226 28.0343V35.6031H167.688V28.6284C167.688 26.7685 166.888 25.6319 165.416 25.6319C163.789 25.6319 162.55 26.8202 162.55 29.3V35.6031H159.012V22.687H162.55V24.1595C163.221 23.1262 164.564 22.4029 166.242 22.4029ZM136.263 22.532C136.624 22.532 137.012 22.5579 137.451 22.687V26.2777C136.908 26.0969 136.418 25.9935 135.85 25.9935C134.171 25.9935 133.061 27.311 133.061 29.4292V35.6031H129.523V22.687H133.061V24.7536C133.5 23.4878 134.817 22.532 136.263 22.532ZM149.38 17.2623L157.308 35.6031H153.383L151.601 31.4183H143.803L142.021 35.6031H138.148L146.049 17.2623H149.38ZM221.785 25.6319C219.849 25.6319 218.532 27.1301 218.532 29.1451C218.532 31.16 219.849 32.6582 221.785 32.6582C223.722 32.6582 225.039 31.16 225.039 29.1451C225.039 27.1301 223.722 25.6319 221.785 25.6319ZM104.812 25.6319C102.875 25.6319 101.558 27.1301 101.558 29.1451C101.558 31.16 102.875 32.6582 104.812 32.6582C106.748 32.6582 108.065 31.16 108.065 29.1451C108.065 27.1301 106.748 25.6319 104.812 25.6319ZM195.886 25.7094C194.027 25.7094 192.658 27.156 192.658 29.1451C192.658 31.1341 194.027 32.5807 195.886 32.5807C197.745 32.5807 199.088 31.1341 199.088 29.1451C199.088 27.156 197.745 25.7094 195.886 25.7094ZM147.702 22.1704L145.171 28.1376H150.232L147.702 22.1704ZM120.098 25.2702C118.557 25.2702 117.456 26.1281 117.059 27.4264L116.999 27.6468H123.068C122.629 25.916 121.312 25.2702 120.098 25.2702ZM248.434 25.2702C246.892 25.2702 245.791 26.1281 245.394 27.4264L245.335 27.6468H251.403C250.964 25.916 249.647 25.2702 248.434 25.2702Z" fill="white"/>
</g>
<defs>
<clipPath id="clip0_2031_328">
<rect width="256" height="52" fill="white"/>
</clipPath>
</defs>
</svg>
