<svg width="303" height="48" viewBox="0 0 303 48" fill="none" xmlns="http://www.w3.org/2000/svg">
<mask id="mask0_2031_426" style="mask-type:luminance" maskUnits="userSpaceOnUse" x="0" y="0" width="47" height="48">
<path d="M46.9692 0H0V47.9387H46.9692V0Z" fill="white"/>
</mask>
<g mask="url(#mask0_2031_426)">
<path d="M41.0038 7.75272H5.59131V42.0925H41.0038V7.75272Z" fill="#323131"/>
<path fill-rule="evenodd" clip-rule="evenodd" d="M13.2101 13.4828H0V0H13.2101V13.4828ZM46.9699 13.4828H33.7598V5.07638e-05H46.9699V13.4828ZM0 47.939H13.2101V34.4563H0V47.939ZM46.9699 47.939H33.7598V34.4563H46.9699V47.939ZM4.4027 13.483H8.80607V34.4562H4.4027V13.483ZM42.5661 13.483H38.1627V34.4562H42.5661V13.483ZM13.2104 4.49461H33.7594V8.98884H13.2104V4.49461ZM33.7594 38.9499H13.2104V43.4441H33.7594V38.9499Z" fill="white"/>
</g>
<path d="M64.5874 8.47842V34.9953H79.3467V40.0461H59.4326V8.47842H64.5874Z" fill="white"/>
<path d="M103.333 40.0461H98.3988V36.9795C97.8705 38.0016 96.96 38.8434 95.6674 39.5049C94.3747 40.1663 92.9945 40.497 91.5261 40.497C89.6168 40.497 87.8693 39.9859 86.2828 38.9637C84.6971 37.9416 83.449 36.5586 82.5382 34.8149C81.6276 33.0711 81.1724 31.132 81.1724 28.9974C81.1724 26.8929 81.6276 24.9687 82.5382 23.225C83.449 21.4813 84.6971 20.0983 86.2828 19.0761C87.8693 18.0539 89.6168 17.5428 91.5261 17.5428C92.9945 17.5428 94.3747 17.8735 95.6674 18.5349C96.96 19.1963 97.8705 20.0382 98.3988 21.0604V17.9938H103.333V40.0461ZM85.9749 28.9974C85.9749 30.2601 86.2539 31.4025 86.8119 32.4247C87.3988 33.4469 88.1921 34.2587 89.1909 34.8599C90.2186 35.4312 91.3354 35.7167 92.5389 35.7167C93.7432 35.7167 94.889 35.4011 95.9761 34.7697C97.0624 34.1384 97.8705 33.3266 98.3988 32.3345V25.7504C97.8994 24.7583 97.1069 23.9465 96.0198 23.3152C94.9327 22.6538 93.7729 22.323 92.5389 22.323C91.3057 22.323 90.1897 22.6237 89.1909 23.225C88.1921 23.7962 87.3988 24.5929 86.8119 25.6152C86.2539 26.6073 85.9749 27.7346 85.9749 28.9974Z" fill="white"/>
<path d="M113.367 21.0604C113.895 20.0382 114.805 19.1963 116.098 18.5349C117.42 17.8735 118.801 17.5428 120.239 17.5428C122.149 17.5428 123.896 18.0539 125.483 19.0761C127.068 20.0983 128.316 21.4813 129.227 23.225C130.137 24.9687 130.593 26.8929 130.593 28.9974C130.593 31.132 130.137 33.0711 129.227 34.8149C128.316 36.5586 127.068 37.9416 125.483 38.9637C123.896 39.9859 122.149 40.497 120.239 40.497C118.801 40.497 117.42 40.1663 116.098 39.5049C114.805 38.8434 113.895 38.0016 113.367 36.9795V40.0461H108.476V8.47842H113.367V21.0604ZM113.367 32.3345C113.895 33.3266 114.703 34.1384 115.789 34.7697C116.876 35.4011 118.022 35.7167 119.226 35.7167C120.43 35.7167 121.532 35.4311 122.531 34.8599C123.558 34.2587 124.352 33.4469 124.91 32.4247C125.497 31.4025 125.79 30.2601 125.79 28.9974C125.79 27.7346 125.497 26.6073 124.91 25.6152C124.352 24.5929 123.573 23.7962 122.575 23.225C121.576 22.6237 120.46 22.323 119.226 22.323C117.992 22.323 116.832 22.6538 115.746 23.3152C114.658 23.9465 113.866 24.7583 113.367 25.7504V32.3345Z" fill="white"/>
<path d="M144.336 40.497C142.309 40.497 140.445 40.001 138.741 39.0089C137.037 37.9866 135.686 36.5886 134.687 34.8149C133.689 33.041 133.19 31.0718 133.19 28.9072C133.19 26.8027 133.674 24.8936 134.643 23.18C135.642 21.4362 136.993 20.0682 138.696 19.0761C140.4 18.0539 142.266 17.5428 144.292 17.5428C146.201 17.5428 147.949 18.0088 149.535 18.9408C151.121 19.8729 152.369 21.1355 153.28 22.7289C154.19 24.3224 154.646 26.0962 154.646 28.0504C154.646 28.5915 154.587 29.313 154.469 30.215H137.948C138.212 32.049 138.917 33.492 140.062 34.5442C141.237 35.5965 142.72 36.1226 144.512 36.1226C145.717 36.1226 146.833 35.8671 147.86 35.356C148.918 34.8149 149.681 34.1234 150.152 33.2815L154.029 35.7167C153.236 37.22 151.973 38.3925 150.239 39.2343C148.536 40.0761 146.569 40.497 144.336 40.497ZM149.667 26.6073C149.491 25.1942 148.874 24.0368 147.817 23.1348C146.759 22.2329 145.511 21.782 144.072 21.782C142.515 21.782 141.208 22.2179 140.151 23.0897C139.122 23.9315 138.432 25.104 138.08 26.6073H149.667Z" fill="white"/>
<path d="M163.62 40.0461H158.729V8.47842H163.62V40.0461Z" fill="white"/>
<path d="M188.743 8.0275C190.711 8.0275 192.679 8.46339 194.647 9.33526C196.644 10.177 198.172 11.2443 199.229 12.5371L196.233 16.6409C195.205 15.5586 193.971 14.7017 192.532 14.0704C191.122 13.4391 189.727 13.1234 188.346 13.1234C186.937 13.1234 185.777 13.4541 184.866 14.1155C183.985 14.7769 183.545 15.6338 183.545 16.686C183.545 17.588 183.824 18.3395 184.382 18.9409C184.969 19.5421 185.688 20.0232 186.54 20.384C187.421 20.7147 188.625 21.1054 190.153 21.5565C192.238 22.1577 193.927 22.7741 195.22 23.4054C196.541 24.0067 197.657 24.9237 198.568 26.1563C199.508 27.3589 199.978 28.9523 199.978 30.9365C199.978 32.6502 199.523 34.2436 198.612 35.7167C197.731 37.1599 196.453 38.3173 194.779 39.1892C193.105 40.061 191.166 40.497 188.964 40.497C186.672 40.497 184.411 39.9859 182.179 38.9637C179.947 37.9416 178.14 36.6488 176.76 35.0854L180.064 31.2071C181.415 32.53 182.795 33.5672 184.205 34.3187C185.615 35.0403 187.201 35.4011 188.964 35.4011C190.667 35.4011 192.048 34.9953 193.105 34.1835C194.162 33.3718 194.691 32.3045 194.691 30.9817C194.691 30.1098 194.412 29.4033 193.854 28.8621C193.296 28.2909 192.591 27.8399 191.739 27.5092C190.887 27.1785 189.713 26.8027 188.214 26.3818C186.129 25.8105 184.425 25.2394 183.104 24.6681C181.811 24.0668 180.695 23.1649 179.755 21.9624C178.816 20.7297 178.345 19.1062 178.345 17.0919C178.345 15.4083 178.786 13.875 179.668 12.492C180.578 11.1091 181.811 10.0267 183.368 9.2451C184.954 8.43331 186.746 8.0275 188.743 8.0275Z" fill="white"/>
<path d="M213.093 40.3617C210.654 40.3617 208.686 39.6101 207.188 38.1069C205.72 36.5735 204.986 34.4691 204.986 31.7934V22.774H200.844V17.9938H204.986V12.0861H209.876V17.9938H215.515V22.774H209.876V31.5678C209.876 32.8306 210.243 33.8377 210.978 34.5893C211.741 35.3109 212.681 35.6717 213.797 35.6717C214.326 35.6717 214.884 35.5814 215.471 35.4011L215.736 39.8206C215.031 40.1813 214.15 40.3617 213.093 40.3617Z" fill="white"/>
<path d="M234.554 37.1147C233.908 38.137 232.997 38.9637 231.823 39.5951C230.648 40.1964 229.385 40.497 228.034 40.497C225.331 40.497 223.188 39.6101 221.601 37.8363C220.015 36.0325 219.222 33.6123 219.222 30.5758V17.9938H224.113V29.764C224.113 31.5378 224.568 32.9358 225.478 33.958C226.418 34.9802 227.667 35.4913 229.223 35.4913C230.31 35.4913 231.323 35.2207 232.263 34.6795C233.233 34.1384 233.996 33.4018 234.554 32.4698L234.599 17.9938H239.533V40.0461H234.554V37.1147Z" fill="white"/>
<path d="M260.818 25.7504C260.319 24.7583 259.526 23.9465 258.439 23.3152C257.352 22.6538 256.193 22.323 254.959 22.323C253.725 22.323 252.609 22.6237 251.61 23.225C250.612 23.7962 249.818 24.5929 249.232 25.6152C248.673 26.6073 248.394 27.7346 248.394 28.9974C248.394 30.2601 248.673 31.4025 249.232 32.4247C249.818 33.4469 250.612 34.2587 251.61 34.8599C252.638 35.4311 253.754 35.7167 254.959 35.7167C256.163 35.7167 257.309 35.4011 258.395 34.7697C259.482 34.1384 260.289 33.3266 260.818 32.3345V25.7504ZM243.592 28.9974C243.592 26.8929 244.047 24.9687 244.957 23.225C245.868 21.4813 247.117 20.0983 248.702 19.0761C250.288 18.0539 252.036 17.5428 253.946 17.5428C255.414 17.5428 256.794 17.8735 258.087 18.5349C259.379 19.1963 260.289 20.0382 260.818 21.0604V8.47842H265.708V40.0461H260.818V36.9795C260.289 38.0016 259.379 38.8434 258.087 39.5049C256.794 40.1663 255.414 40.497 253.946 40.497C252.036 40.497 250.288 39.9859 248.702 38.9637C247.117 37.9416 245.868 36.5586 244.957 34.8149C244.047 33.0711 243.592 31.132 243.592 28.9974Z" fill="white"/>
<path d="M275.786 17.9938V40.0461H270.896V17.9938H275.786ZM273.363 7.75687C274.215 7.75687 274.949 8.07253 275.566 8.70393C276.211 9.33525 276.535 10.0869 276.535 10.9588C276.535 11.8607 276.211 12.6273 275.566 13.2587C274.949 13.89 274.215 14.2057 273.363 14.2057C272.511 14.2057 271.776 13.89 271.16 13.2587C270.543 12.6273 270.234 11.8607 270.234 10.9588C270.234 10.0869 270.543 9.33525 271.16 8.70393C271.776 8.07253 272.511 7.75687 273.363 7.75687Z" fill="white"/>
<path d="M291.052 17.5428C293.108 17.5428 294.988 18.0539 296.692 19.0761C298.395 20.0682 299.747 21.4512 300.745 23.225C301.744 24.9687 302.243 26.9079 302.243 29.0425C302.243 31.1771 301.744 33.1162 300.745 34.8599C299.747 36.6036 298.395 37.9866 296.692 39.0089C294.988 40.001 293.108 40.497 291.052 40.497C288.967 40.497 287.073 40.001 285.369 39.0089C283.665 37.9866 282.315 36.6036 281.316 34.8599C280.347 33.1162 279.862 31.1771 279.862 29.0425C279.862 26.9079 280.347 24.9687 281.316 23.225C282.315 21.4512 283.665 20.0682 285.369 19.0761C287.102 18.0539 288.997 17.5428 291.052 17.5428ZM284.664 29.0425C284.664 30.2751 284.943 31.4025 285.501 32.4247C286.059 33.4169 286.823 34.2135 287.793 34.8149C288.791 35.386 289.878 35.6717 291.052 35.6717C292.228 35.6717 293.299 35.386 294.269 34.8149C295.238 34.2135 296.002 33.4169 296.56 32.4247C297.118 31.4025 297.397 30.2751 297.397 29.0425C297.397 27.8098 297.118 26.6824 296.56 25.6602C296.002 24.638 295.238 23.8414 294.269 23.2701C293.299 22.6688 292.228 22.3682 291.052 22.3682C289.878 22.3682 288.791 22.6688 287.793 23.2701C286.823 23.8414 286.059 24.638 285.501 25.6602C284.943 26.6824 284.664 27.8098 284.664 29.0425Z" fill="white"/>
</svg>
