<svg width="53" height="53" viewBox="0 0 53 53" fill="none" xmlns="http://www.w3.org/2000/svg">
<path d="M43.2571 6.18921C36.8897 9.86537 22.0985 18.4048 15.489 22.2207L15.507 28.5808L43.2746 12.5487L43.2571 6.18921ZM27.5679 19.2054L17.9743 24.7363C17.7227 24.8816 17.3999 24.7948 17.2551 24.5428C17.1095 24.2913 17.1965 23.9687 17.4486 23.8236L27.0421 18.2927C27.2947 18.1472 27.6162 18.2336 27.7613 18.4862C27.9069 18.7377 27.8199 19.0603 27.5679 19.2054ZM30.9704 18.2724C30.0403 18.8039 29.2151 18.2692 29.2151 17.2681C29.2064 16.4297 29.7828 15.4341 30.5251 15.0062C31.3919 14.4933 32.2716 14.9482 32.2716 16.0018C32.2804 16.8489 31.7041 17.8444 30.9704 18.2724ZM35.8591 15.4487C34.9215 15.9846 34.104 15.4332 34.104 14.4534C34.0953 13.6063 34.6716 12.6109 35.4138 12.1831C36.3201 11.6654 37.1601 12.1522 37.1601 13.1872C37.1689 14.0255 36.5926 15.0209 35.8591 15.4487ZM40.7382 12.6251C39.8697 13.1397 38.9834 12.6692 38.9834 11.6299C38.9834 10.7831 39.5596 9.78794 40.2929 9.36017C41.2044 8.84976 42.0476 9.32868 42.0476 10.3641C42.0563 11.2022 41.4802 12.1974 40.7382 12.6251Z" fill="black"/>
<path d="M37.9532 2.5L10.1851 18.5324L14.9619 21.3082L42.7303 5.2765L37.9532 2.5Z" fill="black"/>
<path d="M9.66334 19.4475C9.67017 21.8553 9.63626 9.89611 9.7436 47.7481L14.4555 50.4932L14.4344 22.2204L9.66334 19.4475Z" fill="black"/>
<path d="M43.2781 13.7644L15.5095 29.7966V50.5L43.3368 34.4944L43.2781 13.7644ZM25.3248 41.5063L18.4424 45.48C18.1912 45.6251 17.8684 45.5394 17.7227 45.2871C17.5771 45.035 17.6635 44.7129 17.9156 44.5673L24.798 40.5937C25.0495 40.4476 25.3716 40.534 25.5177 40.7866C25.6633 41.0387 25.5768 41.3608 25.3248 41.5063ZM25.3248 38.31L18.4424 42.2837C18.1912 42.4288 17.8684 42.3431 17.7227 42.0908C17.5771 41.8387 17.6635 41.5166 17.9156 41.371L24.798 37.3974C25.0495 37.2518 25.3716 37.3372 25.5177 37.5903C25.6633 37.8424 25.5768 38.1645 25.3248 38.31ZM25.3173 34.8141L18.4162 38.7545C18.0372 38.944 17.626 38.6896 17.626 38.2909L17.6471 32.2327C17.6576 32.0536 17.7524 31.8745 17.9105 31.7797L24.78 27.8182C24.938 27.7233 25.1487 27.7233 25.3068 27.8182C25.4648 27.913 25.5702 28.0816 25.5702 28.2712L25.5912 34.361C25.5912 34.5507 25.4859 34.7192 25.3173 34.8141ZM36.9701 31.7059L33.9779 33.8237L33.6513 37.4586C33.6302 37.7009 33.4511 37.8906 33.2193 37.9327C33.1877 37.9327 33.156 37.9432 33.1245 37.9432C32.9243 37.9432 32.7346 37.8274 32.6503 37.6482L29.8899 31.9904C29.8161 31.8429 29.8267 31.6533 29.911 31.5058C29.9952 31.3477 30.1533 31.2529 30.3324 31.2424L36.6224 30.7471C36.8647 30.7366 37.086 30.8736 37.1598 31.0948C37.244 31.3161 37.1598 31.569 36.9701 31.7059ZM40.9559 22.8924L27.219 30.8237C26.9678 30.9688 26.645 30.8831 26.4993 30.6308C26.3537 30.3787 26.4401 30.0567 26.6922 29.9111L40.4291 21.9798C40.6791 21.8347 41.0027 21.9196 41.1488 22.1727C41.2944 22.4248 41.208 22.7468 40.9559 22.8924ZM40.9559 19.6956L27.219 27.6274C26.9678 27.7725 26.645 27.6868 26.4993 27.4345C26.3537 27.1824 26.4401 26.8604 26.6922 26.7148L40.4291 18.783C40.6791 18.6374 41.0027 18.7228 41.1488 18.9759C41.2944 19.228 41.208 19.55 40.9559 19.6956Z" fill="black"/>
</svg>
