<svg width="31" height="31" viewBox="0 0 31 31" fill="none" xmlns="http://www.w3.org/2000/svg">
<path d="M16.8278 2.5835C18.2809 2.58737 19.0184 2.59512 19.6552 2.6132L19.9058 2.62225C20.1951 2.63258 20.4806 2.6455 20.8255 2.661C22.1998 2.72558 23.1376 2.94258 23.9603 3.26162C24.8128 3.5897 25.531 4.03404 26.2492 4.75091C26.906 5.39661 27.4142 6.17767 27.7385 7.03975C28.0575 7.86254 28.2745 8.80029 28.3391 10.1759C28.3546 10.5195 28.3675 10.805 28.3778 11.0956L28.3856 11.3462C28.405 11.9817 28.4127 12.7192 28.4153 14.1723L28.4166 15.1359V16.828C28.4198 17.7701 28.4099 18.7123 28.3869 19.6542L28.3791 19.9047C28.3688 20.1954 28.3559 20.4808 28.3404 20.8244C28.2758 22.2 28.0562 23.1365 27.7385 23.9606C27.4151 24.8231 26.9068 25.6044 26.2492 26.2494C25.6033 26.906 24.8223 27.4142 23.9603 27.7387C23.1376 28.0577 22.1998 28.2747 20.8255 28.3393C20.519 28.3538 20.2124 28.3667 19.9058 28.3781L19.6552 28.3858C19.0184 28.4039 18.2809 28.413 16.8278 28.4155L15.8642 28.4168H14.1734C13.2308 28.4201 12.2882 28.4102 11.3459 28.3871L11.0953 28.3794C10.7887 28.3678 10.4822 28.3544 10.1757 28.3393C8.80135 28.2747 7.8636 28.0577 7.03951 27.7387C6.17755 27.415 5.3968 26.9067 4.75197 26.2494C4.09457 25.6039 3.58589 24.8228 3.26139 23.9606C2.94235 23.1378 2.72535 22.2 2.66076 20.8244C2.64637 20.5179 2.63346 20.2114 2.62201 19.9047L2.61556 19.6542C2.59175 18.7123 2.58099 17.7702 2.58326 16.828V14.1723C2.57966 13.2302 2.58913 12.288 2.61168 11.3462L2.62072 11.0956C2.63106 10.805 2.64397 10.5195 2.65947 10.1759C2.72406 8.80029 2.94106 7.86383 3.2601 7.03975C3.58445 6.17679 4.09415 5.39548 4.75326 4.75091C5.39793 4.09407 6.17816 3.58581 7.03951 3.26162C7.8636 2.94258 8.80006 2.72558 10.1757 2.661C10.5193 2.6455 10.806 2.63258 11.0953 2.62225L11.3459 2.6145C12.2878 2.59155 13.2299 2.58164 14.1721 2.58479L16.8278 2.5835ZM15.4999 9.04183C13.7871 9.04183 12.1444 9.72226 10.9332 10.9334C9.72203 12.1446 9.0416 13.7873 9.0416 15.5002C9.0416 17.213 9.72203 18.8557 10.9332 20.0669C12.1444 21.2781 13.7871 21.9585 15.4999 21.9585C17.2128 21.9585 18.8555 21.2781 20.0667 20.0669C21.2778 18.8557 21.9583 17.213 21.9583 15.5002C21.9583 13.7873 21.2778 12.1446 20.0667 10.9334C18.8555 9.72226 17.2128 9.04183 15.4999 9.04183ZM15.4999 11.6252C16.0088 11.6251 16.5127 11.7252 16.9829 11.9199C17.453 12.1145 17.8803 12.3999 18.2402 12.7597C18.6 13.1194 18.8855 13.5466 19.0804 14.0167C19.2752 14.4868 19.3755 14.9906 19.3756 15.4995C19.3757 16.0084 19.2755 16.5123 19.0809 16.9825C18.8862 17.4526 18.6008 17.8799 18.2411 18.2397C17.8813 18.5996 17.4542 18.8851 16.9841 19.0799C16.514 19.2748 16.0101 19.3751 15.5012 19.3752C14.4735 19.3752 13.4879 18.9669 12.7612 18.2402C12.0345 17.5135 11.6262 16.5279 11.6262 15.5002C11.6262 14.4724 12.0345 13.4868 12.7612 12.7601C13.4879 12.0334 14.4735 11.6252 15.5012 11.6252M22.2825 7.10433C21.8543 7.10433 21.4436 7.27444 21.1408 7.57723C20.838 7.88002 20.6679 8.2907 20.6679 8.71891C20.6679 9.14713 20.838 9.5578 21.1408 9.8606C21.4436 10.1634 21.8543 10.3335 22.2825 10.3335C22.7107 10.3335 23.1214 10.1634 23.4242 9.8606C23.7269 9.5578 23.8971 9.14713 23.8971 8.71891C23.8971 8.2907 23.7269 7.88002 23.4242 7.57723C23.1214 7.27444 22.7107 7.10433 22.2825 7.10433Z" fill="#172224"/>
</svg>
