<svg width="30" height="29" viewBox="0 0 30 29" fill="none" xmlns="http://www.w3.org/2000/svg">
<path d="M29.37 7.49538C29.1958 6.89339 28.8638 6.34508 28.406 5.90355C27.9483 5.46201 27.3804 5.14221 26.7572 4.9751C24.4182 4.37063 15.015 4.37063 15.015 4.37063C15.015 4.37063 5.62973 4.35613 3.26629 4.9751C2.64417 5.14294 2.07735 5.46308 1.62063 5.90458C1.16391 6.34607 0.832731 6.894 0.659106 7.49538C0.214919 9.81015 -0.00385051 12.1601 0.00566883 14.5143C0.00133468 16.8572 0.22007 19.1955 0.659106 21.4997C0.833293 22.1014 1.16457 22.6497 1.62113 23.092C2.07769 23.5343 2.64421 23.8557 3.26629 24.0254C5.60536 24.6299 15.015 24.6299 15.015 24.6299C15.015 24.6299 24.3947 24.6299 26.7572 24.0254C27.3803 23.8564 27.9479 23.5354 28.4055 23.093C28.8631 22.6507 29.1953 22.102 29.37 21.4997C29.8004 19.1969 30.0104 16.8551 29.9954 14.5143C30.0104 12.158 29.805 9.81266 29.37 7.49538ZM12.0113 18.8525V10.157L19.8385 14.5143L12.0113 18.8525Z" fill="#172224"/>
</svg>
